<mxfile host="app.diagrams.net" agent="Mozilla/5.0 (Windows NT 10.0; Win64; x64) AppleWebKit/537.36 (KHTML, like Gecko) Chrome/129.0.0.0 Safari/537.36" version="24.8.0">
  <diagram name="Page-1" id="LxQYiXL1fFhTs9qu_BZH">
    <mxGraphModel dx="932" dy="884" grid="1" gridSize="10" guides="1" tooltips="1" connect="1" arrows="1" fold="1" page="1" pageScale="1" pageWidth="827" pageHeight="1169" math="0" shadow="0">
      <root>
        <mxCell id="0" />
        <mxCell id="1" parent="0" />
        <mxCell id="Rxve-UZrTAQCuUOAAd17-22" style="edgeStyle=orthogonalEdgeStyle;rounded=0;orthogonalLoop=1;jettySize=auto;html=1;exitX=1;exitY=0.25;exitDx=0;exitDy=0;entryX=0;entryY=0.5;entryDx=0;entryDy=0;startArrow=classic;startFill=1;" edge="1" parent="1" source="pt9hoRSjWPQ23j6Vz_vE-1" target="pt9hoRSjWPQ23j6Vz_vE-3">
          <mxGeometry relative="1" as="geometry">
            <Array as="points">
              <mxPoint x="550" y="245" />
              <mxPoint x="550" y="160" />
            </Array>
          </mxGeometry>
        </mxCell>
        <mxCell id="Rxve-UZrTAQCuUOAAd17-24" style="edgeStyle=orthogonalEdgeStyle;rounded=0;orthogonalLoop=1;jettySize=auto;html=1;exitX=1;exitY=0.5;exitDx=0;exitDy=0;entryX=0;entryY=0.5;entryDx=0;entryDy=0;" edge="1" parent="1" source="pt9hoRSjWPQ23j6Vz_vE-1" target="pt9hoRSjWPQ23j6Vz_vE-5">
          <mxGeometry relative="1" as="geometry" />
        </mxCell>
        <mxCell id="Rxve-UZrTAQCuUOAAd17-27" style="edgeStyle=orthogonalEdgeStyle;rounded=0;orthogonalLoop=1;jettySize=auto;html=1;exitX=1;exitY=0.75;exitDx=0;exitDy=0;entryX=0;entryY=0.75;entryDx=0;entryDy=0;" edge="1" parent="1" source="pt9hoRSjWPQ23j6Vz_vE-1" target="pt9hoRSjWPQ23j6Vz_vE-4">
          <mxGeometry relative="1" as="geometry">
            <Array as="points">
              <mxPoint x="560" y="275" />
              <mxPoint x="560" y="375" />
            </Array>
          </mxGeometry>
        </mxCell>
        <mxCell id="pt9hoRSjWPQ23j6Vz_vE-1" value="Mikrokontroler&lt;div&gt;ESP32-S3&lt;div&gt;(N16R8)&lt;/div&gt;&lt;/div&gt;" style="rounded=0;whiteSpace=wrap;html=1;" parent="1" vertex="1">
          <mxGeometry x="400" y="230" width="120" height="60" as="geometry" />
        </mxCell>
        <mxCell id="Rxve-UZrTAQCuUOAAd17-19" style="edgeStyle=orthogonalEdgeStyle;rounded=0;orthogonalLoop=1;jettySize=auto;html=1;exitX=0.5;exitY=1;exitDx=0;exitDy=0;entryX=0.5;entryY=0;entryDx=0;entryDy=0;startArrow=classic;startFill=1;" edge="1" parent="1" source="pt9hoRSjWPQ23j6Vz_vE-2" target="pt9hoRSjWPQ23j6Vz_vE-1">
          <mxGeometry relative="1" as="geometry" />
        </mxCell>
        <mxCell id="pt9hoRSjWPQ23j6Vz_vE-2" value="&lt;div&gt;Senzor temperature, vlage, VOC,&lt;/div&gt;&lt;div&gt;PM1, PM2.5, PM4, PM10&lt;/div&gt;&lt;div&gt;Sensirion SEN54&lt;br&gt;&lt;/div&gt;" style="rounded=0;whiteSpace=wrap;html=1;" parent="1" vertex="1">
          <mxGeometry x="400" y="80" width="120" height="80" as="geometry" />
        </mxCell>
        <mxCell id="pt9hoRSjWPQ23j6Vz_vE-3" value="LCD Display 3.5&quot;&lt;div&gt;(ILI9488, SPI)&lt;/div&gt;" style="rounded=0;whiteSpace=wrap;html=1;" parent="1" vertex="1">
          <mxGeometry x="640" y="130" width="120" height="60" as="geometry" />
        </mxCell>
        <mxCell id="pt9hoRSjWPQ23j6Vz_vE-4" value="&lt;div&gt;Senzor atmosferskog tlaka&lt;/div&gt;&lt;div&gt;Infineon DPS368&lt;/div&gt;" style="rounded=0;whiteSpace=wrap;html=1;" parent="1" vertex="1">
          <mxGeometry x="640" y="330" width="120" height="60" as="geometry" />
        </mxCell>
        <mxCell id="pt9hoRSjWPQ23j6Vz_vE-5" value="&lt;div&gt;Photoakustični CO2 sensor&amp;nbsp;&lt;/div&gt;&lt;div&gt;&lt;span style=&quot;background-color: initial;&quot;&gt;Sensirion SCD40&lt;/span&gt;&lt;/div&gt;" style="rounded=0;whiteSpace=wrap;html=1;" parent="1" vertex="1">
          <mxGeometry x="640" y="230" width="120" height="60" as="geometry" />
        </mxCell>
        <mxCell id="Rxve-UZrTAQCuUOAAd17-3" style="edgeStyle=orthogonalEdgeStyle;rounded=0;orthogonalLoop=1;jettySize=auto;html=1;exitX=1;exitY=0.25;exitDx=0;exitDy=0;entryX=0;entryY=0.5;entryDx=0;entryDy=0;fillColor=#e51400;strokeColor=#B20000;endArrow=classic;endFill=1;" edge="1" parent="1" source="Rxve-UZrTAQCuUOAAd17-1" target="Rxve-UZrTAQCuUOAAd17-26">
          <mxGeometry relative="1" as="geometry">
            <mxPoint x="200" y="170" as="targetPoint" />
            <Array as="points">
              <mxPoint x="160" y="245" />
              <mxPoint x="160" y="170" />
            </Array>
          </mxGeometry>
        </mxCell>
        <mxCell id="Rxve-UZrTAQCuUOAAd17-4" style="edgeStyle=orthogonalEdgeStyle;rounded=0;orthogonalLoop=1;jettySize=auto;html=1;exitX=1;exitY=0.75;exitDx=0;exitDy=0;entryX=0;entryY=0.75;entryDx=0;entryDy=0;" edge="1" parent="1" source="Rxve-UZrTAQCuUOAAd17-1" target="pt9hoRSjWPQ23j6Vz_vE-1">
          <mxGeometry relative="1" as="geometry" />
        </mxCell>
        <mxCell id="Rxve-UZrTAQCuUOAAd17-18" style="edgeStyle=orthogonalEdgeStyle;rounded=0;orthogonalLoop=1;jettySize=auto;html=1;exitX=1;exitY=0.25;exitDx=0;exitDy=0;entryX=0;entryY=0.5;entryDx=0;entryDy=0;fillColor=#e51400;strokeColor=#B20000;" edge="1" parent="1" source="Rxve-UZrTAQCuUOAAd17-1" target="pt9hoRSjWPQ23j6Vz_vE-2">
          <mxGeometry relative="1" as="geometry">
            <Array as="points">
              <mxPoint x="160" y="245" />
              <mxPoint x="160" y="120" />
            </Array>
          </mxGeometry>
        </mxCell>
        <mxCell id="Rxve-UZrTAQCuUOAAd17-1" value="USB-C&lt;div&gt;konektor&lt;/div&gt;" style="rounded=0;whiteSpace=wrap;html=1;" vertex="1" parent="1">
          <mxGeometry x="40" y="230" width="80" height="60" as="geometry" />
        </mxCell>
        <mxCell id="Rxve-UZrTAQCuUOAAd17-5" style="edgeStyle=orthogonalEdgeStyle;rounded=0;orthogonalLoop=1;jettySize=auto;html=1;exitX=1;exitY=0.75;exitDx=0;exitDy=0;entryX=0;entryY=0.25;entryDx=0;entryDy=0;fillColor=#e51400;strokeColor=#B20000;" edge="1" parent="1" source="Rxve-UZrTAQCuUOAAd17-26" target="pt9hoRSjWPQ23j6Vz_vE-1">
          <mxGeometry relative="1" as="geometry">
            <mxPoint x="319.9999999999998" y="185" as="sourcePoint" />
            <Array as="points">
              <mxPoint x="350" y="185" />
              <mxPoint x="350" y="245" />
            </Array>
          </mxGeometry>
        </mxCell>
        <mxCell id="Rxve-UZrTAQCuUOAAd17-15" style="edgeStyle=orthogonalEdgeStyle;rounded=0;orthogonalLoop=1;jettySize=auto;html=1;exitX=1;exitY=0.5;exitDx=0;exitDy=0;entryX=0;entryY=0.25;entryDx=0;entryDy=0;fillColor=#e51400;strokeColor=#B20000;" edge="1" parent="1" source="Rxve-UZrTAQCuUOAAd17-26" target="pt9hoRSjWPQ23j6Vz_vE-4">
          <mxGeometry relative="1" as="geometry">
            <mxPoint x="319.9999999999998" y="170" as="sourcePoint" />
            <Array as="points">
              <mxPoint x="370" y="170" />
              <mxPoint x="370" y="210" />
              <mxPoint x="540" y="210" />
              <mxPoint x="540" y="345" />
            </Array>
          </mxGeometry>
        </mxCell>
        <mxCell id="Rxve-UZrTAQCuUOAAd17-16" style="edgeStyle=orthogonalEdgeStyle;rounded=0;orthogonalLoop=1;jettySize=auto;html=1;exitX=1;exitY=0.25;exitDx=0;exitDy=0;entryX=0;entryY=0.25;entryDx=0;entryDy=0;fillColor=#e51400;strokeColor=#B20000;" edge="1" parent="1" source="Rxve-UZrTAQCuUOAAd17-26" target="pt9hoRSjWPQ23j6Vz_vE-5">
          <mxGeometry relative="1" as="geometry">
            <mxPoint x="319.9999999999998" y="155" as="sourcePoint" />
            <Array as="points">
              <mxPoint x="390" y="155" />
              <mxPoint x="390" y="190" />
              <mxPoint x="560" y="190" />
              <mxPoint x="560" y="245" />
            </Array>
          </mxGeometry>
        </mxCell>
        <mxCell id="Rxve-UZrTAQCuUOAAd17-9" value="USB DATA" style="text;html=1;align=center;verticalAlign=middle;whiteSpace=wrap;rounded=0;rotation=0;" vertex="1" parent="1">
          <mxGeometry x="220" y="250" width="70" height="30" as="geometry" />
        </mxCell>
        <mxCell id="Rxve-UZrTAQCuUOAAd17-11" value="I2C" style="text;html=1;align=center;verticalAlign=middle;whiteSpace=wrap;rounded=0;rotation=-90;" vertex="1" parent="1">
          <mxGeometry x="436" y="166" width="30" height="20" as="geometry" />
        </mxCell>
        <mxCell id="Rxve-UZrTAQCuUOAAd17-23" value="SPI" style="text;html=1;align=center;verticalAlign=middle;whiteSpace=wrap;rounded=0;rotation=0;" vertex="1" parent="1">
          <mxGeometry x="580" y="140" width="30" height="20" as="geometry" />
        </mxCell>
        <mxCell id="Rxve-UZrTAQCuUOAAd17-25" value="I2C" style="text;html=1;align=center;verticalAlign=middle;whiteSpace=wrap;rounded=0;rotation=0;" vertex="1" parent="1">
          <mxGeometry x="560" y="240" width="30" height="30" as="geometry" />
        </mxCell>
        <mxCell id="Rxve-UZrTAQCuUOAAd17-26" value="5V na 3V3&amp;nbsp;&lt;div&gt;regulator&lt;/div&gt;" style="rounded=0;whiteSpace=wrap;html=1;" vertex="1" parent="1">
          <mxGeometry x="220" y="140" width="120" height="60" as="geometry" />
        </mxCell>
        <mxCell id="Rxve-UZrTAQCuUOAAd17-28" value="I2C" style="text;html=1;align=center;verticalAlign=middle;whiteSpace=wrap;rounded=0;rotation=0;" vertex="1" parent="1">
          <mxGeometry x="580" y="350" width="30" height="30" as="geometry" />
        </mxCell>
      </root>
    </mxGraphModel>
  </diagram>
</mxfile>
